<svg width="32" height="32" viewBox="0 0 32 32" fill="none" xmlns="http://www.w3.org/2000/svg">
<g clip-path="url(#clip0)">
<path d="M15.095 4.29033C15.095 4.942 15.3607 5.29729 15.5548 5.55704C15.7084 5.7625 15.7931 5.87569 15.7931 6.15769C15.7931 6.46467 16.042 6.71356 16.3489 6.71356C16.6559 6.71356 16.9048 6.46467 16.9048 6.15769C16.9048 5.50601 16.6391 5.15072 16.4453 4.89125C16.2914 4.68578 16.2067 4.57233 16.2067 4.29033C16.2067 4.00832 16.2914 3.89514 16.4453 3.68967C16.6391 3.42993 16.9048 3.07464 16.9048 2.42296C16.9048 1.77128 16.6391 1.41599 16.4453 1.15652C16.2914 0.951053 16.2067 0.837871 16.2067 0.555867C16.2067 0.248891 15.9581 0 15.6508 0C15.3439 0 15.095 0.248891 15.095 0.555867C15.095 1.20754 15.3607 1.56283 15.5548 1.82231C15.7084 2.02777 15.7931 2.14096 15.7931 2.42296C15.7931 2.70497 15.7084 2.81842 15.5548 3.02388C15.3607 3.28336 15.095 3.63892 15.095 4.29033Z" fill="white"/>
<path d="M16.9048 25.8424C16.9048 25.5351 16.6559 25.2865 16.3489 25.2865C16.042 25.2865 15.7931 25.5351 15.7931 25.8424C15.7931 26.1244 15.7084 26.2376 15.5548 26.443C15.3607 26.7025 15.095 27.0581 15.095 27.7097C15.095 28.3612 15.3607 28.7167 15.5548 28.9762C15.7084 29.1817 15.7931 29.2948 15.7931 29.5771C15.7931 29.8591 15.7084 29.972 15.5548 30.1778C15.3607 30.4372 15.095 30.7925 15.095 31.4442C15.095 31.7512 15.3439 32.0001 15.6508 32.0001C15.9581 32.0001 16.2067 31.7512 16.2067 31.4442C16.2067 31.1622 16.2914 31.049 16.4453 30.8433C16.6391 30.5841 16.9048 30.2285 16.9048 29.5771C16.9048 28.9254 16.6391 28.5699 16.4453 28.3104C16.2914 28.1049 16.2067 27.9918 16.2067 27.7097C16.2067 27.4275 16.2914 27.3143 16.4453 27.1088C16.6393 26.8493 16.9048 26.4938 16.9048 25.8424Z" fill="white"/>
<path d="M31.4442 15.095C30.7925 15.095 30.4372 15.3607 30.1777 15.5548C29.972 15.7084 29.8588 15.7931 29.5771 15.7931C29.2951 15.7931 29.1816 15.7084 28.9762 15.5548C28.7167 15.3607 28.3611 15.095 27.7097 15.095C27.0581 15.095 26.7025 15.3607 26.443 15.5548C26.2376 15.7084 26.1244 15.7931 25.8424 15.7931C25.5351 15.7931 25.2865 16.042 25.2865 16.3489C25.2865 16.6559 25.5351 16.9048 25.8424 16.9048C26.4938 16.9048 26.8493 16.6391 27.1088 16.4453C27.3143 16.2914 27.4275 16.2067 27.7097 16.2067C27.9917 16.2067 28.1049 16.2914 28.3104 16.4453C28.5699 16.6391 28.9254 16.9048 29.5771 16.9048C30.2285 16.9048 30.5841 16.6391 30.8433 16.4453C31.049 16.2914 31.1622 16.2067 31.4442 16.2067C31.7512 16.2067 32.0001 15.9581 32.0001 15.6509C32.0001 15.3439 31.7512 15.095 31.4442 15.095Z" fill="white"/>
<path d="M4.89125 16.4453C5.15072 16.6391 5.50601 16.9048 6.15769 16.9048C6.46467 16.9048 6.71356 16.6559 6.71356 16.3489C6.71356 16.042 6.46467 15.7931 6.15769 15.7931C5.87569 15.7931 5.7625 15.7084 5.55704 15.5548C5.29729 15.3607 4.942 15.095 4.29033 15.095C3.63865 15.095 3.28336 15.3607 3.02388 15.5548C2.81842 15.7084 2.70497 15.7931 2.42296 15.7931C2.14096 15.7931 2.02777 15.7084 1.82231 15.5548C1.56283 15.3607 1.20754 15.095 0.555867 15.095C0.248891 15.095 0 15.3439 0 15.6509C0 15.9581 0.248891 16.2067 0.555867 16.2067C0.837871 16.2067 0.951053 16.2914 1.15652 16.4453C1.41599 16.6391 1.77128 16.9048 2.42296 16.9048C3.07464 16.9048 3.42993 16.6391 3.68967 16.4453C3.89514 16.2914 4.00832 16.2067 4.29033 16.2067C4.57233 16.2067 4.68578 16.2919 4.89125 16.4453Z" fill="white"/>
<path d="M23.5994 9.68045C24.0603 9.21958 24.1235 8.78042 24.1699 8.45988C24.2065 8.20583 24.2269 8.06577 24.4261 7.86628C24.6256 7.66679 24.7657 7.6467 25.0197 7.61006C25.3403 7.56365 25.7794 7.50014 26.2403 7.03954C26.7009 6.57867 26.7644 6.13951 26.8105 5.81896C26.8475 5.56491 26.8675 5.42486 27.067 5.22564C27.2839 5.0085 27.2839 4.65647 27.067 4.43961C26.8499 4.22247 26.4979 4.22247 26.2807 4.43961C25.8201 4.90021 25.7566 5.33936 25.7102 5.66018C25.6736 5.91396 25.6535 6.05401 25.454 6.25323C25.2548 6.45273 25.1147 6.47308 24.8607 6.50973C24.5401 6.55614 24.101 6.61938 23.6401 7.08025C23.1795 7.54112 23.116 7.98028 23.0696 8.30082C23.0329 8.55487 23.0126 8.69493 22.8133 8.89415C22.6714 9.03447 22.6155 9.23967 22.6668 9.43237C22.7178 9.62508 22.8684 9.77572 23.0612 9.82702C23.2539 9.87804 23.4593 9.82213 23.5994 9.68045Z" fill="white"/>
<path d="M8.89412 22.8133C8.6949 23.0126 8.55485 23.0329 8.3008 23.0696C7.98025 23.116 7.5411 23.1792 7.08023 23.6401C6.61936 24.101 6.55612 24.5401 6.5097 24.8607C6.47306 25.1147 6.4527 25.2548 6.25321 25.4543C6.05399 25.6535 5.91394 25.6736 5.66016 25.7102C5.33934 25.7566 4.90018 25.8201 4.43959 26.2807C4.22245 26.4979 4.22245 26.8499 4.43959 27.067C4.65645 27.2839 5.00848 27.2839 5.22562 27.067C5.42484 26.8675 5.56489 26.8475 5.81894 26.8105C6.13949 26.7644 6.57864 26.7009 7.03951 26.2403C7.50038 25.7794 7.56363 25.3403 7.61004 25.0197C7.64668 24.7657 7.66677 24.6256 7.86626 24.4261C8.06575 24.2269 8.2058 24.2065 8.45985 24.1699C8.7804 24.1235 9.21956 24.0602 9.68043 23.5994C9.82211 23.4593 9.87802 23.2539 9.82699 23.0611C9.7757 22.8684 9.62506 22.7178 9.43235 22.6668C9.23964 22.6155 9.03445 22.6714 8.89412 22.8133Z" fill="white"/>
<path d="M26.3398 25.7102C26.0858 25.6736 25.946 25.6535 25.7465 25.454C25.5473 25.2548 25.5269 25.1147 25.4903 24.8607C25.4439 24.5401 25.3806 24.101 24.9198 23.6401C24.4589 23.1795 24.0197 23.116 23.6992 23.0696C23.4452 23.0329 23.3051 23.0126 23.1056 22.8133C22.9656 22.6714 22.7604 22.6155 22.5677 22.6668C22.3749 22.7178 22.2243 22.8684 22.173 23.0611C22.1217 23.2539 22.1776 23.4593 22.3196 23.5994C22.7804 24.0602 23.2196 24.1235 23.5401 24.1699C23.7942 24.2065 23.9342 24.2269 24.1337 24.4261C24.3332 24.6256 24.3533 24.7657 24.39 25.0197C24.4364 25.3403 24.4996 25.7794 24.9605 26.2403C25.4211 26.7009 25.8605 26.7644 26.1811 26.8105C26.4351 26.8475 26.5749 26.8675 26.7744 27.067C26.9915 27.2839 27.3433 27.2839 27.5604 27.067C27.7776 26.8499 27.7776 26.4979 27.5604 26.2807C27.0998 25.8201 26.6604 25.7566 26.3398 25.7102Z" fill="white"/>
<path d="M5.75973 7.03954C6.2206 7.50014 6.65976 7.56365 6.98031 7.61006C7.23435 7.6467 7.37441 7.66679 7.57363 7.86628C7.77312 8.06577 7.79348 8.20583 7.83012 8.45988C7.87626 8.78042 7.93977 9.21958 8.40064 9.68045C8.54069 9.82213 8.74616 9.87804 8.93886 9.82702C9.13157 9.77572 9.28194 9.62508 9.33324 9.43237C9.38453 9.23967 9.32862 9.03447 9.18667 8.89415C8.98718 8.69493 8.96709 8.55487 8.93045 8.30082C8.88404 7.98028 8.82053 7.54112 8.35993 7.08025C7.89906 6.61938 7.4599 6.55614 7.13909 6.50973C6.88531 6.47308 6.74526 6.45273 6.54576 6.25323C6.34654 6.05401 6.32619 5.91396 6.28954 5.66018C6.2434 5.33936 6.17989 4.90021 5.71929 4.43961C5.50216 4.22247 5.15013 4.22247 4.93299 4.43961C4.71586 4.65647 4.71586 5.0085 4.93299 5.22564C5.13249 5.42486 5.15257 5.56491 5.18921 5.81896C5.23562 6.13951 5.29887 6.57867 5.75973 7.03954Z" fill="white"/>
<path d="M15.9999 7.885C11.5182 7.885 7.88501 11.5182 7.88501 15.9999C7.88501 20.4818 11.5182 24.1151 15.9999 24.1151C20.4819 24.1151 24.1151 20.4818 24.1151 15.9999C24.1099 11.5204 20.4797 7.89016 15.9999 7.885ZM15.9999 23.0033C12.1322 23.0033 8.99674 19.8679 8.99674 15.9999C8.99674 12.1322 12.1322 8.99674 15.9999 8.99674C19.8679 8.99674 23.0033 12.1322 23.0033 15.9999C22.999 19.866 19.866 22.999 15.9999 23.0033Z" fill="white"/>
</g>
<defs>
<clipPath id="clip0">
<rect width="32" height="32" fill="white"/>
</clipPath>
</defs>
</svg>
