<svg width="32" height="32" viewBox="0 0 32 32" fill="none" xmlns="http://www.w3.org/2000/svg">
<g clip-path="url(#clip0)">
<path d="M30.3865 19.5707C30.2897 19.2166 29.9229 19.009 29.5721 19.1052L24.9661 20.3606L21.6606 18.4718L26.8284 16.6015C27.091 16.506 27.2661 16.256 27.2655 15.9768C27.2648 15.6976 27.0884 15.4475 26.8257 15.3534L21.6653 13.5096L24.9561 11.6182L29.5648 12.863C29.6225 12.8783 29.6809 12.8862 29.7386 12.8862C30.0304 12.8862 30.2983 12.6912 30.3786 12.3954C30.4741 12.0419 30.2645 11.6778 29.911 11.5823L26.583 10.6837L29.6278 8.93347C29.9455 8.75109 30.0556 8.3452 29.8725 8.02819C29.6895 7.71051 29.2856 7.60108 28.9673 7.78346L25.9224 9.53302L26.8211 6.20568C26.9166 5.85219 26.707 5.48808 26.3535 5.39258C26.0034 5.29774 25.6359 5.50533 25.5398 5.86015L24.2949 10.4688L20.9623 12.3842L21.9346 6.9246C21.9836 6.64937 21.855 6.37281 21.6122 6.23353C21.3702 6.09492 21.0671 6.12211 20.8522 6.30317L16.6633 9.86064V6.05115L20.0384 2.67606C20.2977 2.41675 20.2977 1.9976 20.0384 1.73828C19.7791 1.47896 19.36 1.47896 19.1006 1.73828L16.6633 4.17559V0.663212C16.6633 0.297119 16.3662 0 16.0001 0C15.634 0 15.3369 0.297119 15.3369 0.663212V4.17559L12.8996 1.73828C12.6403 1.47896 12.2211 1.47896 11.9618 1.73828C11.7025 1.9976 11.7025 2.41675 11.9618 2.67606L15.3369 6.05115V9.88452L11.1069 6.3224C10.8927 6.14267 10.589 6.11548 10.3469 6.25608C10.1048 6.39602 9.97683 6.67324 10.0272 6.94848L11.0201 12.3901L7.69206 10.488L6.43594 5.88269C6.33911 5.5292 5.97368 5.31963 5.62151 5.41712C5.26802 5.51329 5.05977 5.87805 5.15594 6.23154L6.06255 9.55689L3.0131 7.81397C2.69542 7.63291 2.29019 7.74301 2.10847 8.06068C1.92675 8.37836 2.03751 8.78359 2.35519 8.96531L5.40398 10.7076L2.07863 11.6142C1.72514 11.711 1.51689 12.0751 1.61305 12.4286C1.69397 12.7237 1.96058 12.9174 2.25239 12.9174C2.31009 12.9174 2.36845 12.9094 2.42748 12.8935L7.03283 11.6381L10.3383 13.5269L5.17252 15.3971C4.90988 15.4926 4.73413 15.7427 4.7348 16.0219C4.73546 16.3011 4.91121 16.5511 5.17517 16.6453L10.3356 18.489L7.04476 20.3805L2.4361 19.1357C2.08062 19.0395 1.71784 19.2491 1.623 19.6032C1.5275 19.9567 1.73641 20.3208 2.09057 20.417L5.41857 21.3156L2.37243 23.0665C2.05475 23.2489 1.94532 23.6548 2.12771 23.9718C2.2504 24.1854 2.4739 24.3047 2.70338 24.3047C2.81546 24.3047 2.92887 24.2762 3.03299 24.2165L6.07846 22.4663L5.17981 25.7943C5.08431 26.1478 5.29322 26.5119 5.64738 26.6081C5.70508 26.6233 5.76344 26.6306 5.82047 26.6306C6.11295 26.6306 6.38089 26.4363 6.46047 26.1405L7.70532 21.5325L11.0386 19.6172L10.0664 25.0767C10.0173 25.3526 10.1466 25.6292 10.3887 25.7685C10.4915 25.8275 10.6056 25.8567 10.719 25.8567C10.8728 25.8567 11.0254 25.8029 11.1481 25.6995L15.3369 22.1413V25.9495L11.9618 29.3253C11.7025 29.5846 11.7025 30.0037 11.9618 30.263C12.0911 30.3924 12.2609 30.4574 12.4307 30.4574C12.6005 30.4574 12.7703 30.3924 12.8996 30.263L15.3369 27.8251V31.3375C15.3369 31.7042 15.634 32.0007 16.0001 32.0007C16.3662 32.0007 16.6633 31.7042 16.6633 31.3375V27.8251L19.1006 30.2624C19.23 30.3917 19.3998 30.4567 19.5695 30.4567C19.7393 30.4567 19.9091 30.3917 20.0384 30.2624C20.2977 30.0031 20.2977 29.5839 20.0384 29.3246L16.6633 25.9489V22.1155L20.8933 25.6769C21.1082 25.8567 21.4113 25.8825 21.6533 25.7439C21.8948 25.6033 22.0234 25.3261 21.9724 25.0509L20.9802 19.6099L24.3088 21.512L25.5643 26.1166C25.6446 26.4118 25.9118 26.6054 26.2036 26.6054C26.262 26.6054 26.3204 26.5981 26.3787 26.5822C26.7322 26.4854 26.9411 26.1213 26.8443 25.7678L25.9377 22.4424L28.9865 24.1847C29.0899 24.2444 29.2034 24.2722 29.3148 24.2722C29.5449 24.2722 29.7691 24.1522 29.8911 23.938C30.0728 23.6203 29.9621 23.2151 29.6444 23.0334L26.5949 21.2918L29.921 20.3852C30.2744 20.2883 30.4834 19.9236 30.3865 19.5707ZM24.6424 15.9821L20.1498 17.6083L17.3338 15.9987L20.1538 14.3784L24.6424 15.9821ZM20.3057 8.50636L19.4621 13.2457L16.6633 14.854V11.5996L20.3057 8.50636ZM11.6634 8.52493L15.3369 11.6188V14.8579L12.5256 13.251L11.6634 8.52493ZM7.3578 16.0179L11.8497 14.3917L14.6664 16.0013L11.8464 17.6216L7.3578 16.0179ZM11.6945 23.4936L12.5388 18.7543L15.3369 17.146V20.3998L11.6945 23.4936ZM20.3375 23.4751L16.6633 20.3818V17.1427L19.4754 18.7497L20.3375 23.4751Z" fill="#0065FF"/>
</g>
<defs>
<clipPath id="clip0">
<rect width="32" height="32" fill="white"/>
</clipPath>
</defs>
</svg>
